<svg width="842" height="260" viewBox="0 0 842 260" fill="none" xmlns="http://www.w3.org/2000/svg">
<path d="M60.0447 224.045V184.25H39.8364V224.978C39.8364 229.641 37.971 233.372 32.6858 233.372C27.4006 233.372 25.5352 229.641 25.5352 224.978V81.9653C25.5352 77.3019 27.4006 73.5711 32.6858 73.5711C37.971 73.5711 39.8364 77.3019 39.8364 81.9653V122.382H60.0447V82.898C60.0447 62.0679 50.4069 47.4558 32.3749 47.4558C15.5865 47.4558 0.974365 62.0679 0.974365 82.898V224.045C0.974365 245.186 15.5865 259.487 32.3749 259.487C50.4069 259.487 60.0447 245.186 60.0447 224.045Z" fill="#FAFF00"/>
<path d="M130.555 224.045V82.898C130.555 62.0679 116.876 47.4558 99.7763 47.4558C82.9879 47.4558 68.9975 62.0679 68.9975 82.898V224.045C68.9975 245.186 82.9879 259.487 99.7763 259.487C116.876 259.487 130.555 245.186 130.555 224.045ZM105.994 225.91C105.994 230.574 103.818 233.372 99.7763 233.372C95.7346 233.372 93.5584 230.574 93.5584 225.91V81.0326C93.5584 76.3692 95.7346 73.5711 99.7763 73.5711C103.818 73.5711 105.994 76.3692 105.994 81.0326V225.91Z" fill="#FAFF00"/>
<path d="M231.395 257V49.943H200.616L192.222 131.398L188.491 183.939L184.449 131.398L175.433 49.943H143.722V257H164.241V90.0486L166.417 135.44L176.988 257H193.776L205.901 135.44L208.388 90.0486V257H231.395Z" fill="#FAFF00"/>
<path d="M304.494 141.036V82.5871C304.494 56.1609 289.26 49.943 277.135 49.943H245.735V257H269.985V173.68H277.135C289.26 173.68 304.494 167.462 304.494 141.036ZM280.866 142.59C280.866 148.497 279.312 150.673 276.514 150.673H269.985V74.8147H276.514C279.312 74.8147 280.866 77.3019 280.866 83.2089V142.59Z" fill="#FAFF00"/>
<path d="M378.055 257V256.067C376.501 246.119 374.946 235.548 374.946 222.491V178.343C374.946 168.395 369.661 162.177 363.132 156.891C369.661 151.295 374.325 145.077 374.325 135.44V82.5871C374.325 56.1609 359.091 49.943 346.966 49.943H315.565V257H339.815V168.084H345.722C349.142 168.084 351.007 171.504 351.007 176.167V224.978C351.007 235.859 353.184 257 356.914 257H378.055ZM350.386 136.061C350.386 142.279 348.831 144.456 346.033 144.456H339.815V74.8147H346.033C348.831 74.8147 350.386 77.3019 350.386 83.2089V136.061Z" fill="#FAFF00"/>
<path d="M437.575 257V232.128H411.46V162.798H429.181V137.927H411.46V74.8147H437.575V49.943H387.521V257H437.575Z" fill="#FAFF00"/>
<path d="M505.151 219.692C505.151 197.93 495.513 171.193 484.321 144.766C472.818 117.408 468.155 109.013 468.155 81.6544C468.155 75.4365 471.574 72.3275 476.238 72.3275C480.59 72.3275 483.389 75.4365 483.389 81.6544V113.055H504.219V85.3852C504.219 59.5808 493.026 47.4558 476.238 47.4558C453.853 47.4558 443.905 64.5551 443.905 88.4941C443.905 109.946 457.273 142.59 466.289 163.731C476.86 187.981 481.523 204.459 481.523 225.289C481.523 231.817 478.725 236.17 473.129 236.17C466.911 236.17 464.424 231.817 464.424 225.289V196.375H443.594V221.558C443.594 246.119 455.097 259.487 474.373 259.487C486.808 259.487 505.151 252.026 505.151 219.692Z" fill="#FAFF00"/>
<path d="M573.463 219.692C573.463 197.93 563.826 171.193 552.633 144.766C541.13 117.408 536.467 109.013 536.467 81.6544C536.467 75.4365 539.887 72.3275 544.55 72.3275C548.903 72.3275 551.701 75.4365 551.701 81.6544V113.055H572.531V85.3852C572.531 59.5808 561.339 47.4558 544.55 47.4558C522.166 47.4558 512.217 64.5551 512.217 88.4941C512.217 109.946 525.585 142.59 534.601 163.731C545.172 187.981 549.835 204.459 549.835 225.289C549.835 231.817 547.037 236.17 541.441 236.17C535.223 236.17 532.736 231.817 532.736 225.289V196.375H511.906V221.558C511.906 246.119 523.409 259.487 542.685 259.487C555.121 259.487 573.463 252.026 573.463 219.692Z" fill="#FAFF00"/>
<path d="M634.314 257V232.128H608.199V162.798H625.92V137.927H608.199V74.8147H634.314V49.943H584.26V257H634.314Z" fill="#FAFF00"/>
<path d="M704.999 224.356V82.5871C704.999 56.1609 689.765 49.943 677.33 49.943H644.375V257H677.33C689.765 257 704.999 250.782 704.999 224.356ZM680.749 224.045C680.749 229.952 678.884 232.439 674.842 232.439H668.624V74.8147H674.842C678.884 74.8147 680.749 77.3019 680.749 83.2089V224.045Z" fill="#FAFF00"/>
<path d="M729.775 53.6007C727.017 66.1658 725.485 77.6073 725.485 83.0216C725.485 94.1565 728.447 103.861 738.56 103.861C751.432 103.861 758.583 88.1293 758.583 74.6448C758.583 65.6551 755.416 58.5042 751.33 53.6007H767.062L767.471 46.7562H739.991C744.792 27.5509 751.841 9.26505 758.583 9.26505C761.443 9.26505 764.917 12.9427 764.917 17.5397C764.917 19.1742 764.508 20.9108 763.589 22.6475L766.551 24.3841C769.82 20.9108 771.25 17.0289 771.25 13.3513C771.25 5.99607 765.632 0.68396 759.605 0.68396C746.835 0.68396 737.13 24.282 731.41 46.7562H720.99V53.6007H729.775ZM739.276 53.6007C746.018 58.1977 750.513 66.3702 750.513 74.7469C750.513 84.4517 744.486 95.1781 739.48 95.1781C734.883 95.1781 734.576 85.7798 734.576 82.7151C734.576 75.6663 736.007 64.8378 738.458 53.6007H739.276Z" fill="#8C59FF"/>
<path d="M779.501 82H788.797C788.593 79.9569 789.002 77.5051 789.41 75.2577L796.05 37.2557C799.013 32.9652 801.158 30.8199 804.325 30.8199C808.513 30.8199 810.148 34.5997 809.433 39.0946L801.873 82H810.148L817.299 41.2398C817.503 40.2183 817.605 39.1967 817.707 38.2773C819.444 35.0083 823.428 30.9221 827.208 30.9221C830.681 30.9221 832.213 34.5997 831.396 39.0946L826.799 62.0796C825.88 66.9831 824.96 72.193 824.96 75.6663C824.96 81.5914 827.719 83.5323 830.477 83.5323C833.848 83.5323 838.649 80.7741 841.203 78.731L839.671 74.9512C838.956 75.3599 837.219 76.075 835.891 76.075C834.767 76.075 833.746 75.5642 833.746 74.0318C834.257 66.6766 835.789 59.2192 837.321 51.4554C837.934 48.3907 838.649 44.8153 839.262 41.2398C841.101 30.9221 837.526 22.1367 828.229 22.1367C824.143 22.1367 819.955 23.8733 816.686 28.4703C815.256 24.5884 812.191 22.1367 807.287 22.1367C803.405 22.1367 800.647 23.669 797.685 27.9596L798.4 23.7712H789.717L779.501 82Z" fill="#8C59FF"/>
</svg>
