<svg width="271" height="168" viewBox="0 0 271 168" fill="none" xmlns="http://www.w3.org/2000/svg">
<path d="M24.0199 0.542147C24.4887 -0.831051 27.6265 0.795105 28.456 1.04806C30.8364 1.69852 33.2167 2.34899 35.5971 2.92718C38.807 3.72219 42.0168 4.44492 45.2628 5.13152C48.3644 5.78198 51.5022 6.61313 54.6039 7.04677C62.0335 8.60065 69.427 10.0823 76.8927 11.4916C78.6238 11.8168 80.3189 12.1782 82.0501 12.395C92.5092 13.8405 103.041 14.8523 113.572 15.5028C118.837 15.828 124.139 16.0448 129.405 16.2255C132.038 16.2978 134.67 16.3701 137.303 16.4062C138.313 16.4062 139.756 16.8037 140.693 16.3701C141.559 15.9726 141.27 13.8766 141.992 13.7321C142.136 13.6959 142.28 13.7682 142.425 13.8405C143.038 14.1296 143.543 14.7078 143.795 15.3582C144.012 15.9726 143.723 16.9844 144.048 17.5264C144.336 17.9962 145.743 18.2853 146.284 18.3576C147.726 18.6105 149.205 18.3576 150.648 18.3576C152.992 18.3576 154.687 20.3451 156.743 21.0679C158.005 21.5015 159.34 21.646 160.674 21.7183C161.143 21.7183 164.317 20.7426 164.1 21.899C164.028 22.1881 163.776 22.4049 163.487 22.5856C161.504 23.8142 155.084 26.9582 157.212 30.1382C157.897 31.1862 159.376 30.5718 160.277 30.2105C160.746 30.0298 161.035 29.7768 161.54 29.9575C162.225 30.1743 162.73 30.8248 163.451 31.0777C164.461 31.403 165.579 31.2223 166.553 30.8248C168.825 29.8491 170.268 27.7532 172.215 26.3077C172.468 26.127 172.792 25.9102 173.081 26.0547C173.225 26.127 173.333 26.2716 173.441 26.38C174.668 28.0423 175.605 29.5239 177.733 29.9936C181.015 30.7164 184.045 28.8011 187.255 28.5843C188.553 28.512 189.887 28.8373 190.969 29.5239C191.691 29.9575 192.448 30.6802 192.845 31.4391C193.783 33.2098 190.681 32.9207 189.743 33.0291C187.471 33.3182 185.199 33.788 183.035 34.6192C181.556 35.1973 180.114 35.9924 178.887 37.0403C177.769 37.9437 176.146 39.4615 175.894 40.9792C175.786 41.6658 176.074 42.0995 176.687 41.702C177.373 41.2322 177.877 40.4372 178.599 39.9674C178.779 39.859 178.996 39.7144 179.212 39.7867C179.573 39.8951 179.573 40.401 179.5 40.7624C178.599 45.4963 177.517 50.2302 177.481 55.0726C177.445 57.1685 177.769 59.4451 179.248 60.9267C179.825 61.5049 180.619 61.9386 181.448 61.9024C182.133 61.8663 182.819 61.5049 183.287 61.0352C184.55 59.7342 184.694 57.7467 184.586 55.9399C184.369 53.1935 183.684 50.4832 183.468 47.7368C183.36 46.2913 183.432 44.8097 183.756 43.4004C183.901 42.7499 184.55 40.0035 185.379 39.8951C185.487 39.8951 185.56 39.9313 185.668 39.9313C186.064 40.0758 186.497 40.401 186.822 40.0397C187.507 39.2808 187.399 38.1244 187.94 37.2571C188.517 36.3176 190.176 36.0646 191.222 35.7755C193.025 35.3058 195.406 36.5705 196.632 37.9437C197.858 39.3169 197.245 40.3288 196.992 42.1717C196.812 43.3281 196.343 44.4484 195.766 45.4963C195.586 45.8216 195.406 46.1107 195.37 46.472C195.333 46.8334 195.442 47.2309 195.73 47.4116C196.127 47.6645 196.668 47.4116 196.956 47.0502C197.497 46.4359 197.678 45.4963 198.327 44.9904C200.058 43.6895 201.104 46.2191 201.501 47.4116C201.861 48.568 202.006 49.7966 201.934 51.0253C201.861 53.5548 201.068 56.0121 200.058 58.2888C197.425 64.1068 209.688 58.5417 211.275 57.3492C214.484 55.0003 219.389 51.6035 218.596 47.0141C221.301 43.9786 227.468 46.5804 229.849 43.292C231.039 41.6658 230.606 39.4253 231.003 37.474C231.688 34.2578 234.645 31.945 237.747 30.8248C241.137 29.6323 247.846 30.355 250.154 27.2111C250.514 26.7413 250.767 26.1993 251.164 25.8018C251.488 25.4765 251.957 25.585 252.318 25.4043C252.895 25.1152 252.859 24.284 252.967 23.742C253.111 22.9831 253.255 22.2604 253.4 21.5015C253.688 19.9476 253.941 18.3576 254.229 16.8037C254.374 15.9726 254.554 15.1776 254.734 14.3825C254.878 13.6237 255.275 12.7202 255.275 11.9614C255.383 11.4555 255.528 10.9495 255.888 10.6243C256.465 10.0823 257.367 10.2268 258.16 10.2268C260.433 10.2629 261.479 8.23929 263.065 11.4193C263.642 12.6118 263.859 13.9128 264.292 15.1776C264.905 16.9483 266.023 18.5383 267.465 19.7308C269.088 21.104 271.649 21.3208 270.856 23.9588C270.206 26.127 267.574 27.3918 265.626 28.0784C265.121 28.2591 264.58 28.4036 264.039 28.5482C263.895 28.5843 263.462 28.5843 263.354 28.6927C263.065 28.9095 263.246 29.4516 263.21 29.7407C263.174 30.1382 263.101 30.5357 262.957 30.9332C262.669 31.6921 262.128 32.3425 261.442 32.8123C260.901 33.1737 260.288 33.3544 259.747 33.7519C259.026 34.2578 258.557 35.0889 258.269 35.9562C257.764 37.5101 257.583 39.4253 257.728 41.0515C257.944 43.292 259.134 45.1711 261.082 46.3275C261.442 46.5443 262.524 46.6888 262.2 47.3393C261.983 47.8091 261.262 48.062 260.865 48.315C260.288 48.6764 259.711 49.0016 259.098 49.2907C257.908 49.905 256.682 50.4471 255.419 50.953C254.374 51.3505 253.292 51.7119 252.318 52.3262C251.705 52.7237 250.731 53.8439 251.632 54.4944C252.137 54.8558 252.895 55.1087 252.065 55.723C250.875 56.5903 249.649 57.4937 248.459 58.361C247.521 59.0476 246.547 59.8426 246.295 60.999C246.006 62.4445 246.583 63.89 246.511 65.2993C246.439 66.4557 245.898 67.5759 245.068 68.3709C244.636 68.7684 244.131 69.1298 243.59 69.3466C243.229 69.4912 242.832 69.5634 242.472 69.6719C241.642 69.8525 242.364 70.6837 242.58 71.2619C242.904 72.1653 243.157 73.1048 243.337 74.0805C243.554 75.4537 243.662 76.8992 243.482 78.2724C243.373 79.1397 243.301 80.0431 243.013 80.8743C242.868 81.2356 242.255 82.5004 241.823 81.6693C241.75 81.4886 241.714 81.3079 241.714 81.1272C241.534 79.5011 241.029 77.9472 240.2 76.5378C239.803 75.8151 239.298 75.1646 238.757 74.5503C238.324 74.0805 236.881 71.9846 236.773 73.7553C236.665 75.7428 237.206 77.7304 238 79.5733C239.478 82.8979 242.075 85.572 243.373 88.9689C243.77 90.053 244.023 91.1732 244.095 92.2935C244.131 92.7633 244.131 93.2692 243.95 93.7028C243.409 95.0037 241.318 95.6542 241.642 97.3526C241.786 98.0392 242.364 98.6536 242.183 99.3402C241.931 100.171 240.813 100.207 239.947 100.388C237.567 100.858 236.268 103.315 234.934 105.339C231.688 110.253 226.458 113.65 223.393 118.673C220.255 123.769 219.786 129.984 221.914 135.549C222.527 137.175 223.357 138.729 224.331 140.175C225.268 141.584 226.855 142.777 227.18 144.439C227.793 147.583 230.029 149.859 231.363 152.678C232.445 154.955 232.986 157.52 232.481 159.978C232.373 160.448 232.265 160.917 232.121 161.351C231.94 161.929 231.796 162.471 231.616 163.049C231.291 164.133 230.57 165.181 229.56 165.687C229.127 165.904 228.37 166.157 227.901 165.94C227.396 165.723 227.432 165.254 227.36 164.748C227.216 164.133 226.783 163.591 226.314 163.194C225.809 162.796 225.232 162.507 224.691 162.146C221.698 160.231 219.858 156.942 217.803 154.16C216.793 152.787 215.711 151.377 215.422 149.679C215.134 148.197 215.458 146.679 215.206 145.198C214.629 142.235 211.852 140.283 209.291 138.693C207.704 137.717 205.757 136.742 204.097 137.573C203.016 138.115 202.33 139.344 201.176 139.705C199.842 140.102 198.543 139.199 197.317 138.549C195.369 137.464 193.133 136.85 190.897 136.778C189.779 136.742 188.625 136.85 187.507 137.067C186.642 137.248 185.848 137.573 185.019 137.862C184.369 138.115 184.117 137.428 183.973 136.959C183.684 136.091 182.53 136.778 182.025 136.995C181.015 137.392 179.969 137.645 178.959 138.007C177.373 138.585 175.317 139.777 175.786 141.801C176.074 142.921 177.373 145.089 175.389 145.342C171.891 145.776 168.32 145.27 164.786 144.873C157.717 144.114 150.395 143.897 143.687 146.282C138.674 148.053 134.021 151.558 131.497 156.292C130.379 158.388 129.693 160.592 129.874 162.941C129.946 163.844 131.28 167.494 130.198 168.036C129.693 168.289 129.08 168.181 128.503 168C124.608 166.988 119.992 165.723 118.477 161.495C117.9 159.833 117.864 157.99 117.142 156.4C116.457 154.882 115.159 153.762 114.185 152.425C112.309 149.896 111.516 146.643 109.388 144.33C107.945 142.74 102.5 139.56 100.516 141.729C99.7946 142.488 99.5782 143.572 99.1815 144.547C98.7487 145.523 97.9552 146.463 96.9093 146.426C96.4404 146.39 96.0076 146.173 95.6109 145.957C92.7256 144.403 89.4797 142.343 89.119 139.055C88.9748 137.862 89.2633 136.597 88.7223 135.513C87.3518 132.875 82.8436 129.37 80.3189 127.78C78.4796 126.623 75.45 125.323 73.2139 125.575C72.0237 125.684 70.7975 126.551 70.6893 127.744C70.4368 130.526 48.3284 122.829 46.489 121.853C39.8889 118.312 33.8659 113.47 26.292 112.133C24.2363 111.771 24.1281 112.024 23.0461 110.543C22.0363 109.133 21.6395 106.893 20.7018 105.339C17.7083 100.424 12.082 98.6897 9.16069 94.0281C8.33118 92.691 7.93445 91.1733 7.50166 89.6555C6.34754 85.3191 5.15737 80.9465 4.00325 76.6101C3.67866 75.3453 3.39013 73.8276 4.29178 72.9242C4.61638 72.5989 5.04917 72.3821 5.19343 71.9485C5.40983 71.4064 5.1213 70.8282 4.79671 70.3584C2.52455 66.9977 1.11797 66.2389 1.1901 61.9386C1.22617 60.0233 1.76716 57.9635 1.4065 56.0483C1.11797 54.5667 -0.0361394 53.3019 0.108125 51.7841C0.288455 50.1218 1.98356 47.9175 2.52455 46.2552C3.2098 44.1593 3.67866 42.0272 4.25572 39.8951C5.2295 36.3537 6.49181 32.8846 7.79019 29.4516C9.08856 25.4404 10.4591 21.6822 11.8656 17.9239C12.9116 15.033 14.787 11.7807 14.5345 8.63679C14.4263 7.11905 12.3706 3.5415 13.705 2.20444C14.3181 1.59011 16.3018 3.18013 16.8067 3.50536C18.0329 4.26424 20.6297 6.07108 22.1084 5.20379C22.5051 4.95084 22.6854 4.48106 22.8297 4.01128C23.2625 2.89104 23.6232 1.69852 24.0199 0.542147Z" fill="#FAFF00"/>
</svg>
